<svg version="1.1" id="Layer_1" xmlns="http://www.w3.org/2000/svg" xmlns:xlink="http://www.w3.org/1999/xlink" x="0px" y="0px"
	 width="100%" viewBox="0 0 1228 558" enable-background="new 0 0 1228 558" xml:space="preserve">
<path fill="#202020" opacity="1.000000" stroke="none" 
	d="
M759.000000,559.000000 
	C506.000000,559.000000 253.500031,559.000000 1.000034,559.000000 
	C1.000023,373.000031 1.000023,187.000046 1.000011,1.000059 
	C410.333282,1.000039 819.666565,1.000039 1229.000000,1.000020 
	C1229.000000,186.999939 1229.000000,372.999878 1229.000000,558.999878 
	C1072.500000,559.000000 916.000000,559.000000 759.000000,559.000000 
M387.253784,391.273956 
	C390.543060,394.524353 393.703003,394.118866 396.809326,390.977356 
	C400.441925,387.303619 404.105225,383.660278 407.752533,380.001068 
	C417.034241,370.688934 417.033661,370.688293 408.307953,361.252930 
	C408.194885,361.130676 407.999298,361.033844 407.966766,360.895813 
	C407.626831,359.453552 406.652618,357.686371 407.158539,356.639618 
	C407.786377,355.340576 409.523315,354.212677 411.004242,353.787109 
	C412.698975,353.300018 414.639221,353.693237 416.471802,353.655151 
	C422.555542,353.528778 424.237030,351.898376 424.304718,345.944550 
	C424.357727,341.278625 424.319733,336.611664 424.318024,331.945160 
	C424.313080,318.403900 424.304871,318.479614 410.849670,317.167755 
	C409.460541,317.032288 407.691986,315.562500 407.087433,314.255035 
	C406.601227,313.203522 407.253571,311.213287 408.038269,310.081696 
	C409.253723,308.329071 410.993347,306.933685 412.544403,305.421387 
	C415.803284,302.244019 415.771545,299.060272 412.595978,295.868256 
	C408.011902,291.260406 403.529388,286.542236 398.773102,282.118896 
	C396.317993,279.835602 393.365570,278.087036 389.860748,275.529907 
	C389.860748,274.693604 389.860474,272.707306 389.860748,270.721039 
	C389.864838,239.555466 389.872559,208.389877 389.871002,177.224304 
	C389.870544,168.535141 388.888489,167.577148 380.016296,167.566940 
	C371.849915,167.557541 363.683502,167.553131 355.517151,167.573120 
	C347.389404,167.593002 346.201355,168.760986 346.198456,176.787491 
	C346.188202,205.119843 346.194061,233.452194 346.193817,261.784546 
	C346.193787,263.753906 346.193817,265.723236 346.193817,267.541138 
	C339.152771,269.566559 339.039551,269.801849 338.958832,279.342804 
	C338.938782,281.714020 339.611877,284.121338 336.300110,285.517120 
	C332.899139,286.950562 331.792267,284.511688 330.092957,282.935944 
	C326.637177,279.731354 323.865753,274.957336 317.516052,279.050873 
	C317.516052,276.265228 317.516418,274.451202 317.515991,272.637177 
	C317.513336,260.804260 317.565338,248.970947 317.484344,237.138565 
	C317.444397,231.302872 315.832886,229.743195 309.973083,229.704559 
	C300.307190,229.640823 290.640015,229.622864 280.974518,229.712280 
	C275.814789,229.760010 273.984283,231.543289 273.979126,236.642105 
	C273.935608,279.640533 273.936737,322.639069 273.970764,365.637543 
	C273.974945,370.953796 276.025482,373.579865 281.207764,372.718933 
	C294.904877,370.443420 304.901978,375.662689 312.740906,386.388397 
	C313.129547,386.920197 313.673340,387.338623 314.144989,387.809753 
	C321.971344,395.627472 322.373718,395.625275 330.412262,387.716278 
	C330.768677,387.365662 331.065552,386.817261 331.487152,386.694794 
	C333.043243,386.242645 334.897919,385.267181 336.149170,385.753143 
	C337.399567,386.238800 338.540070,388.133148 338.866333,389.601593 
	C339.325287,391.667023 339.001190,393.909241 338.989685,396.075775 
	C338.965820,400.570831 341.156860,402.904755 345.685486,402.914917 
	C353.185181,402.931732 360.686035,402.997986 368.184296,402.893646 
	C373.100739,402.825226 374.918060,400.833771 375.052338,395.763550 
	C375.109680,393.598358 374.758636,391.366333 375.187439,389.287231 
	C375.461151,387.960205 376.589142,386.318481 377.764709,385.806458 
	C378.942169,385.293610 380.940094,385.565125 382.067322,386.288849 
	C383.849731,387.433350 385.205811,389.241852 387.253784,391.273956 
M1059.170044,302.499939 
	C1059.170044,330.923492 1059.170044,359.347046 1059.170044,388.402344 
	C1069.558228,386.886292 1079.218750,385.294464 1088.932373,384.155182 
	C1092.439819,383.743774 1093.231689,382.324036 1093.174072,379.086121 
	C1092.996216,369.099365 1093.097046,359.107361 1093.127686,349.117523 
	C1093.131226,347.963989 1093.373657,346.811188 1093.633179,344.537964 
	C1099.540649,354.370911 1107.256226,359.020844 1117.616211,359.288757 
	C1140.926514,359.891479 1158.338745,342.787170 1158.863525,318.641388 
	C1159.365234,295.555573 1144.398926,278.246979 1122.305664,276.605286 
	C1109.479370,275.652191 1099.920532,281.157043 1092.656738,292.095825 
	C1092.656738,287.413147 1092.656738,282.730469 1092.656738,278.081482 
	C1081.129150,278.081482 1070.283691,278.081482 1059.170044,278.081482 
	C1059.170044,286.202423 1059.170044,293.851196 1059.170044,302.499939 
M867.700928,352.244141 
	C889.879700,335.100220 886.207764,304.443817 860.631531,293.396820 
	C858.344604,292.409088 855.960083,291.641510 853.603271,290.822571 
	C847.789551,288.802368 841.791382,287.189636 836.230713,284.625153 
	C833.979248,283.586853 831.074097,280.251465 831.358643,278.407867 
	C831.683960,276.301056 835.002258,273.610168 837.425415,273.100616 
	C841.878235,272.164246 846.737061,271.961273 851.228271,272.684601 
	C858.031311,273.780243 864.664612,275.929657 871.722534,277.720795 
	C873.288574,270.928925 875.000977,264.168152 876.285767,257.327179 
	C876.522217,256.068329 875.414734,253.895401 874.270203,253.138672 
	C858.554749,242.748245 827.350952,243.839996 811.780334,254.458206 
	C794.698608,266.106934 789.411194,300.115051 816.984924,311.019501 
	C822.698547,313.279053 828.618042,315.018097 834.443604,316.994385 
	C837.749634,318.115906 841.307617,318.796509 844.277344,320.502289 
	C846.284607,321.655212 848.858276,324.403809 848.662720,326.158234 
	C848.416931,328.363129 845.977112,331.263519 843.806824,332.093994 
	C840.527466,333.348938 836.537109,333.857819 833.070801,333.301361 
	C823.195557,331.715973 813.432434,329.431946 803.296997,327.355591 
	C802.657043,330.201569 801.742493,334.069611 800.920898,337.957306 
	C797.609192,353.627106 797.555298,353.894104 813.497925,357.780212 
	C831.877075,362.260284 850.099365,363.241486 867.700928,352.244141 
M785.783325,306.791412 
	C785.549316,305.649506 785.338013,304.502411 785.078064,303.366455 
	C782.022339,290.011597 775.106750,279.906311 760.881287,277.227173 
	C746.306091,274.482178 734.160828,278.545319 726.272156,292.022308 
	C726.178589,292.182098 725.725891,292.131714 724.919250,292.266754 
	C724.919250,287.478729 724.919250,282.760956 724.919250,277.915466 
	C713.650146,277.915466 702.904175,277.915466 692.113770,277.915466 
	C692.113770,304.730865 692.113770,331.230438 692.113770,357.762512 
	C703.359436,357.762512 714.146667,357.762512 725.578003,357.762512 
	C725.578003,355.771545 725.576843,353.983215 725.578186,352.194885 
	C725.585876,341.533752 725.581604,330.872620 725.607361,320.211517 
	C725.620728,314.701324 726.853149,309.608826 731.059998,305.684906 
	C735.219604,301.805084 740.211182,300.911652 745.468750,302.528107 
	C750.474243,304.067078 752.007446,308.379547 752.455322,313.084930 
	C752.738525,316.060211 752.728577,319.069550 752.735779,322.063873 
	C752.764282,333.848999 752.747498,345.634216 752.747498,357.691772 
	C764.160278,357.691772 775.059937,357.691772 785.882324,357.691772 
	C785.882324,340.883942 785.882324,324.272003 785.783325,306.791412 
M618.084045,315.679321 
	C618.578552,308.718689 619.073059,301.758026 619.611511,294.178284 
	C606.125610,294.178284 593.716431,294.178284 581.109863,294.178284 
	C581.109863,286.571960 581.109863,279.540558 581.109863,271.982300 
	C594.894226,271.982300 608.301758,271.982300 621.798950,271.982300 
	C621.798950,263.722260 621.798950,255.997513 621.798950,248.301483 
	C596.417908,248.301483 571.388123,248.301483 546.393311,248.301483 
	C546.393311,284.998505 546.393311,321.245544 546.393311,357.580719 
	C557.928955,357.580719 569.129639,357.580719 580.817383,357.580719 
	C580.817383,343.607452 580.817383,330.015900 580.817383,315.824646 
	C593.251221,315.824646 605.199829,315.824646 618.084045,315.679321 
M1029.834717,351.370056 
	C1054.570068,333.470428 1053.089111,296.815948 1026.801758,282.613861 
	C1012.070251,274.654968 996.433777,274.377960 980.879639,280.054993 
	C964.501953,286.032593 955.065735,299.589661 954.697571,316.539093 
	C954.310608,334.360565 962.913330,348.493408 979.333069,355.114014 
	C996.313416,361.960663 1013.150574,361.098419 1029.834717,351.370056 
M266.735352,209.236221 
	C293.940887,181.972336 321.146423,154.708450 348.351959,127.444572 
	C348.792969,127.662460 349.234009,127.880348 349.675018,128.098236 
	C349.675018,132.036804 349.721252,135.976089 349.662079,139.913757 
	C349.602631,143.867508 350.659973,147.138809 355.282776,147.075027 
	C359.896088,147.011414 360.832611,143.607513 360.829254,139.743912 
	C360.821991,131.410965 360.879578,123.077568 360.808075,114.745247 
	C360.759308,109.069168 358.879181,107.115471 353.394135,107.066597 
	C344.895203,106.990860 336.395050,107.066376 327.895538,107.038414 
	C323.885468,107.025230 320.772736,108.339836 320.863770,112.866341 
	C320.949707,117.140305 324.008026,118.281685 327.792572,118.229721 
	C331.995270,118.172020 336.199371,118.216515 340.846344,118.216515 
	C303.507660,155.389557 266.832336,191.902176 230.115021,228.456573 
	C210.332581,208.722488 190.161026,188.600189 169.989426,168.477921 
	C164.223648,162.726257 162.584946,162.692673 156.936600,168.347839 
	C132.321747,192.992447 107.716530,217.646652 83.114441,242.304001 
	C82.174927,243.245636 80.618683,244.202957 80.538971,245.244019 
	C80.356110,247.632050 80.107330,250.771667 81.415039,252.279221 
	C82.472534,253.498322 85.857231,253.219513 88.031746,252.761215 
	C89.423019,252.468002 90.522865,250.671844 91.698845,249.495010 
	C114.316788,226.860626 136.944122,204.235535 159.491226,181.530777 
	C160.734070,180.279236 161.296677,178.352173 162.175919,176.739548 
	C165.405273,179.138000 166.448013,180.676117 167.735855,181.970306 
	C186.662277,200.990021 205.615936,219.982605 224.576035,238.968765 
	C229.907410,244.307495 231.684418,244.329666 236.916672,239.104630 
	C246.704605,229.330231 256.464386,219.527649 266.735352,209.236221 
M473.681152,263.793030 
	C473.681152,268.731476 473.681152,273.669922 473.681152,279.116394 
	C478.481018,279.116394 482.570007,279.116394 486.780273,279.116394 
	C486.780273,297.731476 486.780273,315.814545 486.780273,334.464050 
	C482.424072,334.464050 478.345490,334.464050 474.031616,334.464050 
	C474.031616,342.583374 474.031616,350.132294 474.031616,357.654877 
	C494.472168,357.654877 514.560120,357.654877 534.821472,357.654877 
	C534.821472,349.912964 534.821472,342.489838 534.821472,334.482574 
	C530.492249,334.482574 526.406921,334.482574 521.554688,334.482574 
	C521.554688,305.223053 521.554688,276.537598 521.554688,247.106323 
	C514.992737,247.539520 508.450623,246.300491 503.655853,248.641022 
	C494.116943,253.297333 484.608246,257.222595 473.681274,258.097443 
	C473.681274,259.921997 473.681274,261.400543 473.681152,263.793030 
M922.351196,251.814819 
	C914.261414,250.124207 909.132751,253.412125 906.303406,261.039307 
	C905.447693,263.345947 903.566711,265.262970 902.640991,267.554626 
	C899.632874,275.000793 894.829041,279.128662 886.329407,277.264954 
	C885.776550,277.143707 885.107849,277.550842 884.402588,277.735931 
	C884.402588,284.161194 884.402588,290.404114 884.402588,296.850037 
	C887.770569,297.035492 890.851929,297.205170 894.413147,297.401245 
	C894.413147,299.910309 894.387207,302.045319 894.417480,304.179565 
	C894.564026,314.501404 894.354126,324.846252 894.998047,335.137421 
	C895.525818,343.570587 899.515381,350.601074 907.210510,354.602356 
	C919.406372,360.943817 931.921021,360.379486 944.294617,354.948914 
	C945.472961,354.431732 946.875122,352.521423 946.794189,351.353485 
	C946.339294,344.789337 945.461731,338.254517 944.730469,331.728485 
	C941.728394,332.192139 939.284973,332.849854 936.831726,332.888977 
	C931.985474,332.966278 928.640015,330.490143 928.500854,326.109344 
	C928.200623,316.654175 928.408569,307.182861 928.408569,297.127563 
	C934.723633,297.127563 940.634521,297.127563 946.725586,297.127563 
	C946.725586,290.285736 946.725586,284.043152 946.725586,277.166534 
	C940.583069,277.166534 934.677368,277.166534 928.246094,277.166534 
	C928.246094,268.446838 928.246094,260.347931 928.246094,252.036804 
	C926.239075,251.947266 924.760437,251.881302 922.351196,251.814819 
M144.055099,290.500000 
	C144.056732,315.149811 144.044662,339.799591 144.068878,364.449402 
	C144.075623,371.323425 145.702637,372.900055 152.652695,372.915955 
	C161.813049,372.936920 170.973755,372.963806 180.133774,372.904694 
	C185.782623,372.868286 187.690826,371.049835 187.697006,365.423798 
	C187.743378,323.286011 187.749146,281.148102 187.713715,239.010284 
	C187.708954,233.342056 185.909882,231.658875 180.122635,231.620941 
	C170.962631,231.560883 161.801880,231.582993 152.641556,231.608963 
	C145.551788,231.629059 144.074844,233.067368 144.064331,240.033829 
	C144.039459,256.522522 144.055557,273.011261 144.055099,290.500000 
M635.238281,340.013245 
	C637.638672,344.121399 639.336792,348.923584 642.576843,352.201996 
	C650.870361,360.593658 671.782166,361.849396 681.469055,355.081329 
	C682.478638,354.376038 683.459351,352.711609 683.399719,351.546173 
	C683.069885,345.106384 682.413208,338.683319 681.864624,332.208740 
	C670.170410,334.574280 667.963501,332.705750 667.959656,320.882874 
	C667.955750,308.901459 667.955139,296.920074 667.953125,284.938660 
	C667.952759,282.677032 667.953064,280.415436 667.953064,278.147736 
	C656.319397,278.147736 645.423645,278.147736 634.043579,278.147736 
	C634.043579,293.270630 633.954712,308.042816 634.089783,322.812958 
	C634.139771,328.279755 634.716064,333.741730 635.238281,340.013245 
M208.986389,281.511841 
	C208.987411,309.150421 208.977463,336.788971 208.997223,364.427551 
	C209.002121,371.284332 210.656296,372.909027 217.559830,372.927917 
	C226.883591,372.953430 236.208221,373.001862 245.531052,372.904541 
	C250.579071,372.851837 252.597900,370.951538 252.608398,365.947479 
	C252.674606,334.313171 252.644333,302.678650 252.628418,271.044220 
	C252.626160,266.539734 250.258179,264.301910 245.798569,264.292114 
	C235.808807,264.270172 225.818909,264.260498 215.829193,264.289978 
	C211.400406,264.303070 209.007767,266.484375 208.999649,271.028595 
	C208.994003,274.192047 208.990875,277.355469 208.986389,281.511841 
M95.518188,280.047028 
	C92.354103,280.048523 89.189911,280.067261 86.025955,280.047424 
	C81.547684,280.019379 79.131584,282.197357 79.126717,286.699829 
	C79.098091,313.177948 79.105682,339.656128 79.121033,366.134308 
	C79.123642,370.631134 81.491096,372.893799 85.941246,372.907959 
	C95.932899,372.939728 105.924744,372.927887 115.916473,372.913544 
	C120.357452,372.907196 122.783104,370.741364 122.785347,366.210297 
	C122.798424,339.732147 122.792412,313.253998 122.784828,286.775848 
	C122.783539,282.269867 120.514511,280.035217 115.995598,280.046967 
	C109.501007,280.063843 103.006317,280.048523 95.518188,280.047028 
M637.515564,242.044510 
	C630.640381,250.421417 631.972534,260.373749 640.721924,265.998657 
	C648.029236,270.696442 657.882446,269.762024 664.203186,263.771912 
	C670.719788,257.596130 670.887146,248.477478 664.601868,242.048523 
	C657.503418,234.787857 646.994934,234.583801 637.515564,242.044510 
z"/>
<path fill="#94D378" opacity="1.000000" stroke="none" 
	d="
M386.998047,391.021667 
	C385.205811,389.241852 383.849731,387.433350 382.067322,386.288849 
	C380.940094,385.565125 378.942169,385.293610 377.764709,385.806458 
	C376.589142,386.318481 375.461151,387.960205 375.187439,389.287231 
	C374.758636,391.366333 375.109680,393.598358 375.052338,395.763550 
	C374.918060,400.833771 373.100739,402.825226 368.184296,402.893646 
	C360.686035,402.997986 353.185181,402.931732 345.685486,402.914917 
	C341.156860,402.904755 338.965820,400.570831 338.989685,396.075775 
	C339.001190,393.909241 339.325287,391.667023 338.866333,389.601593 
	C338.540070,388.133148 337.399567,386.238800 336.149170,385.753143 
	C334.897919,385.267181 333.043243,386.242645 331.487152,386.694794 
	C331.065552,386.817261 330.768677,387.365662 330.412262,387.716278 
	C322.373718,395.625275 321.971344,395.627472 314.144989,387.809753 
	C313.673340,387.338623 313.129547,386.920197 312.740906,386.388397 
	C304.901978,375.662689 294.904877,370.443420 281.207764,372.718933 
	C276.025482,373.579865 273.974945,370.953796 273.970764,365.637543 
	C273.936737,322.639069 273.935608,279.640533 273.979126,236.642105 
	C273.984283,231.543289 275.814789,229.760010 280.974518,229.712280 
	C290.640015,229.622864 300.307190,229.640823 309.973083,229.704559 
	C315.832886,229.743195 317.444397,231.302872 317.484344,237.138565 
	C317.565338,248.970947 317.513336,260.804260 317.515991,272.637177 
	C317.516418,274.451202 317.516052,276.265228 317.516052,279.050873 
	C323.865753,274.957336 326.637177,279.731354 330.092957,282.935944 
	C331.792267,284.511688 332.899139,286.950562 336.300110,285.517120 
	C339.611877,284.121338 338.938782,281.714020 338.958832,279.342804 
	C339.039551,269.801849 339.152771,269.566559 346.193817,267.541138 
	C346.193817,265.723236 346.193787,263.753906 346.193817,261.784546 
	C346.194061,233.452194 346.188202,205.119843 346.198456,176.787491 
	C346.201355,168.760986 347.389404,167.593002 355.517151,167.573120 
	C363.683502,167.553131 371.849915,167.557541 380.016296,167.566940 
	C388.888489,167.577148 389.870544,168.535141 389.871002,177.224304 
	C389.872559,208.389877 389.864838,239.555466 389.860748,270.721039 
	C389.860474,272.707306 389.860748,274.693604 389.860748,275.529907 
	C393.365570,278.087036 396.317993,279.835602 398.773102,282.118896 
	C403.529388,286.542236 408.011902,291.260406 412.595978,295.868256 
	C415.771545,299.060272 415.803284,302.244019 412.544403,305.421387 
	C410.993347,306.933685 409.253723,308.329071 408.038269,310.081696 
	C407.253571,311.213287 406.601227,313.203522 407.087433,314.255035 
	C407.691986,315.562500 409.460541,317.032288 410.849670,317.167755 
	C424.304871,318.479614 424.313080,318.403900 424.318024,331.945160 
	C424.319733,336.611664 424.357727,341.278625 424.304718,345.944550 
	C424.237030,351.898376 422.555542,353.528778 416.471802,353.655151 
	C414.639221,353.693237 412.698975,353.300018 411.004242,353.787109 
	C409.523315,354.212677 407.786377,355.340576 407.158539,356.639618 
	C406.652618,357.686371 407.626831,359.453552 407.966766,360.895813 
	C407.999298,361.033844 408.194885,361.130676 408.307953,361.252930 
	C417.033661,370.688293 417.034241,370.688934 407.752533,380.001068 
	C404.105225,383.660278 400.441925,387.303619 396.809326,390.977356 
	C393.703003,394.118866 390.543060,394.524353 386.998047,391.021667 
M393.962982,309.090881 
	C396.359772,306.213654 398.756561,303.336395 400.917542,300.742249 
	C397.745667,297.399719 394.801636,294.297272 391.464355,290.780457 
	C386.671509,297.636108 381.863861,299.522369 373.039032,296.099243 
	C363.841919,292.531708 363.450073,286.707306 363.745605,279.540192 
	C358.806244,279.540192 354.571075,279.540192 349.748383,279.540192 
	C351.383789,287.927795 349.019653,292.466766 340.662689,296.187073 
	C331.757416,300.151428 327.125305,297.020325 322.495667,291.027802 
	C318.892609,294.418793 315.776611,297.351379 312.211578,300.706604 
	C318.552399,305.603180 321.607758,310.071716 317.773468,318.914307 
	C314.093292,327.401520 309.469574,329.943542 301.150574,328.455231 
	C301.150574,333.453278 301.150574,337.673737 301.150574,342.529449 
	C309.321136,341.212036 314.033752,343.255524 317.678986,351.756439 
	C321.489777,360.643433 318.648071,365.351685 312.786499,369.927704 
	C316.196838,373.427216 319.180786,376.489197 322.670715,380.070404 
	C327.133972,373.115601 332.022461,371.389648 340.815125,374.826813 
	C349.904846,378.380188 350.681793,384.030396 350.075989,391.837708 
	C353.015076,391.837708 355.156769,391.837708 357.298492,391.837708 
	C359.391083,391.837708 361.483704,391.837708 363.481201,391.837708 
	C364.915955,378.688019 364.940582,378.744751 378.360809,372.916748 
	C385.625366,369.761963 387.218689,377.728241 391.908417,379.624207 
	C395.011444,376.626984 398.093140,373.650360 401.778320,370.090790 
	C394.745819,365.422394 392.711670,360.563110 396.258514,351.724487 
	C399.827118,342.831757 405.193146,341.525238 412.839600,342.268738 
	C412.839600,337.385925 412.839600,333.290863 412.839600,328.597473 
	C410.118256,328.597473 407.632965,328.859985 405.235901,328.512970 
	C403.375183,328.243561 400.578796,327.691010 400.006592,326.438354 
	C397.560028,321.082153 395.784180,315.419647 393.962982,309.090881 
M375.009644,273.994812 
	C375.067810,284.133179 375.067810,284.133179 378.511780,284.623047 
	C378.511780,249.536118 378.511780,214.465408 378.511780,179.164246 
	C371.381561,179.164246 364.546997,179.164246 357.699860,179.164246 
	C357.699860,208.986465 357.699860,238.354538 357.699860,268.056519 
	C361.430115,268.056519 364.747162,268.077484 368.063812,268.050842 
	C371.642273,268.022064 374.219330,269.309021 375.009644,273.994812 
M302.754913,306.679962 
	C297.716736,301.413452 297.543854,299.552185 302.702972,294.743134 
	C305.527374,292.110413 306.456146,289.300537 306.401672,285.543762 
	C306.215942,272.726959 306.331421,259.905762 306.331940,247.086258 
	C306.332001,245.158615 306.331940,243.230972 306.331940,241.232147 
	C298.879578,241.232147 292.170074,241.232147 285.376221,241.232147 
	C285.376221,281.485321 285.376221,321.347168 285.376221,361.750641 
	C291.645844,361.750641 297.612610,361.976501 303.539703,361.591553 
	C305.017761,361.495514 307.562500,359.389648 307.525970,358.276093 
	C307.451752,356.012787 306.586578,353.254822 303.030243,353.561157 
	C300.882599,353.746155 298.704498,353.596252 296.540436,353.567688 
	C292.110413,353.509186 289.750580,351.436371 289.787140,346.820923 
	C289.846466,339.329468 289.734009,331.836426 289.825592,324.345642 
	C289.887482,319.283234 291.669250,317.596313 296.842010,317.405029 
	C299.170044,317.318909 301.579437,317.712006 303.804169,317.219788 
	C305.079498,316.937592 306.494385,315.502167 307.033600,314.238953 
	C307.467987,313.221405 306.983551,311.511261 306.359833,310.421356 
	C305.641510,309.166138 304.322083,308.254883 302.754913,306.679962 
z"/>
<path fill="#96D579" opacity="1.000000" stroke="none" 
	d="
M1059.170044,301.999939 
	C1059.170044,293.851196 1059.170044,286.202423 1059.170044,278.081482 
	C1070.283691,278.081482 1081.129150,278.081482 1092.656738,278.081482 
	C1092.656738,282.730469 1092.656738,287.413147 1092.656738,292.095825 
	C1099.920532,281.157043 1109.479370,275.652191 1122.305664,276.605286 
	C1144.398926,278.246979 1159.365234,295.555573 1158.863525,318.641388 
	C1158.338745,342.787170 1140.926514,359.891479 1117.616211,359.288757 
	C1107.256226,359.020844 1099.540649,354.370911 1093.633179,344.537964 
	C1093.373657,346.811188 1093.131226,347.963989 1093.127686,349.117523 
	C1093.097046,359.107361 1092.996216,369.099365 1093.174072,379.086121 
	C1093.231689,382.324036 1092.439819,383.743774 1088.932373,384.155182 
	C1079.218750,385.294464 1069.558228,386.886292 1059.170044,388.402344 
	C1059.170044,359.347046 1059.170044,330.923492 1059.170044,301.999939 
M1093.393188,321.671509 
	C1096.293091,329.847687 1101.525269,333.998596 1108.936768,334.002899 
	C1115.763672,334.006866 1121.601685,330.057587 1124.033081,323.790375 
	C1126.509399,317.407349 1124.756836,310.079407 1119.480103,305.680328 
	C1114.104736,301.198853 1108.029907,300.612274 1101.765015,303.435730 
	C1095.216797,306.386902 1092.612549,311.990448 1093.393188,321.671509 
z"/>
<path fill="#96D579" opacity="1.000000" stroke="none" 
	d="
M867.417542,352.466370 
	C850.099365,363.241486 831.877075,362.260284 813.497925,357.780212 
	C797.555298,353.894104 797.609192,353.627106 800.920898,337.957306 
	C801.742493,334.069611 802.657043,330.201569 803.296997,327.355591 
	C813.432434,329.431946 823.195557,331.715973 833.070801,333.301361 
	C836.537109,333.857819 840.527466,333.348938 843.806824,332.093994 
	C845.977112,331.263519 848.416931,328.363129 848.662720,326.158234 
	C848.858276,324.403809 846.284607,321.655212 844.277344,320.502289 
	C841.307617,318.796509 837.749634,318.115906 834.443604,316.994385 
	C828.618042,315.018097 822.698547,313.279053 816.984924,311.019501 
	C789.411194,300.115051 794.698608,266.106934 811.780334,254.458206 
	C827.350952,243.839996 858.554749,242.748245 874.270203,253.138672 
	C875.414734,253.895401 876.522217,256.068329 876.285767,257.327179 
	C875.000977,264.168152 873.288574,270.928925 871.722534,277.720795 
	C864.664612,275.929657 858.031311,273.780243 851.228271,272.684601 
	C846.737061,271.961273 841.878235,272.164246 837.425415,273.100616 
	C835.002258,273.610168 831.683960,276.301056 831.358643,278.407867 
	C831.074097,280.251465 833.979248,283.586853 836.230713,284.625153 
	C841.791382,287.189636 847.789551,288.802368 853.603271,290.822571 
	C855.960083,291.641510 858.344604,292.409088 860.631531,293.396820 
	C886.207764,304.443817 889.879700,335.100220 867.417542,352.466370 
z"/>
<path fill="#96D579" opacity="1.000000" stroke="none" 
	d="
M785.832825,307.225739 
	C785.882324,324.272003 785.882324,340.883942 785.882324,357.691772 
	C775.059937,357.691772 764.160278,357.691772 752.747498,357.691772 
	C752.747498,345.634216 752.764282,333.848999 752.735779,322.063873 
	C752.728577,319.069550 752.738525,316.060211 752.455322,313.084930 
	C752.007446,308.379547 750.474243,304.067078 745.468750,302.528107 
	C740.211182,300.911652 735.219604,301.805084 731.059998,305.684906 
	C726.853149,309.608826 725.620728,314.701324 725.607361,320.211517 
	C725.581604,330.872620 725.585876,341.533752 725.578186,352.194885 
	C725.576843,353.983215 725.578003,355.771545 725.578003,357.762512 
	C714.146667,357.762512 703.359436,357.762512 692.113770,357.762512 
	C692.113770,331.230438 692.113770,304.730865 692.113770,277.915466 
	C702.904175,277.915466 713.650146,277.915466 724.919250,277.915466 
	C724.919250,282.760956 724.919250,287.478729 724.919250,292.266754 
	C725.725891,292.131714 726.178589,292.182098 726.272156,292.022308 
	C734.160828,278.545319 746.306091,274.482178 760.881287,277.227173 
	C775.106750,279.906311 782.022339,290.011597 785.078064,303.366455 
	C785.338013,304.502411 785.549316,305.649506 785.832825,307.225739 
z"/>
<path fill="#96D579" opacity="1.000000" stroke="none" 
	d="
M617.616211,315.751984 
	C605.199829,315.824646 593.251221,315.824646 580.817383,315.824646 
	C580.817383,330.015900 580.817383,343.607452 580.817383,357.580719 
	C569.129639,357.580719 557.928955,357.580719 546.393311,357.580719 
	C546.393311,321.245544 546.393311,284.998505 546.393311,248.301483 
	C571.388123,248.301483 596.417908,248.301483 621.798950,248.301483 
	C621.798950,255.997513 621.798950,263.722260 621.798950,271.982300 
	C608.301758,271.982300 594.894226,271.982300 581.109863,271.982300 
	C581.109863,279.540558 581.109863,286.571960 581.109863,294.178284 
	C593.716431,294.178284 606.125610,294.178284 619.611511,294.178284 
	C619.073059,301.758026 618.578552,308.718689 617.616211,315.751984 
z"/>
<path fill="#96D679" opacity="1.000000" stroke="none" 
	d="
M1029.537231,351.580200 
	C1013.150574,361.098419 996.313416,361.960663 979.333069,355.114014 
	C962.913330,348.493408 954.310608,334.360565 954.697571,316.539093 
	C955.065735,299.589661 964.501953,286.032593 980.879639,280.054993 
	C996.433777,274.377960 1012.070251,274.654968 1026.801758,282.613861 
	C1053.089111,296.815948 1054.570068,333.470428 1029.537231,351.580200 
M1008.960693,302.350922 
	C1005.444397,301.735229 1001.772766,300.150452 998.440674,300.684418 
	C988.190369,302.326935 983.007690,314.908844 987.577393,325.900299 
	C990.049744,331.847260 994.894104,335.186646 1001.085938,335.212555 
	C1007.263977,335.238403 1012.172546,331.931610 1014.704224,326.038330 
	C1018.144958,318.028870 1016.124023,308.901642 1008.960693,302.350922 
z"/>
<path fill="#94D477" opacity="1.000000" stroke="none" 
	d="
M266.485626,209.486496 
	C256.464386,219.527649 246.704605,229.330231 236.916672,239.104630 
	C231.684418,244.329666 229.907410,244.307495 224.576035,238.968765 
	C205.615936,219.982605 186.662277,200.990021 167.735855,181.970306 
	C166.448013,180.676117 165.405273,179.138000 162.175919,176.739548 
	C161.296677,178.352173 160.734070,180.279236 159.491226,181.530777 
	C136.944122,204.235535 114.316788,226.860626 91.698845,249.495010 
	C90.522865,250.671844 89.423019,252.468002 88.031746,252.761215 
	C85.857231,253.219513 82.472534,253.498322 81.415039,252.279221 
	C80.107330,250.771667 80.356110,247.632050 80.538971,245.244019 
	C80.618683,244.202957 82.174927,243.245636 83.114441,242.304001 
	C107.716530,217.646652 132.321747,192.992447 156.936600,168.347839 
	C162.584946,162.692673 164.223648,162.726257 169.989426,168.477921 
	C190.161026,188.600189 210.332581,208.722488 230.115021,228.456573 
	C266.832336,191.902176 303.507660,155.389557 340.846344,118.216515 
	C336.199371,118.216515 331.995270,118.172020 327.792572,118.229721 
	C324.008026,118.281685 320.949707,117.140305 320.863770,112.866341 
	C320.772736,108.339836 323.885468,107.025230 327.895538,107.038414 
	C336.395050,107.066376 344.895203,106.990860 353.394135,107.066597 
	C358.879181,107.115471 360.759308,109.069168 360.808075,114.745247 
	C360.879578,123.077568 360.821991,131.410965 360.829254,139.743912 
	C360.832611,143.607513 359.896088,147.011414 355.282776,147.075027 
	C350.659973,147.138809 349.602631,143.867508 349.662079,139.913757 
	C349.721252,135.976089 349.675018,132.036804 349.675018,128.098236 
	C349.234009,127.880348 348.792969,127.662460 348.351959,127.444572 
	C321.146423,154.708450 293.940887,181.972336 266.485626,209.486496 
z"/>
<path fill="#95D579" opacity="1.000000" stroke="none" 
	d="
M473.681213,263.336060 
	C473.681274,261.400543 473.681274,259.921997 473.681274,258.097443 
	C484.608246,257.222595 494.116943,253.297333 503.655853,248.641022 
	C508.450623,246.300491 514.992737,247.539520 521.554688,247.106323 
	C521.554688,276.537598 521.554688,305.223053 521.554688,334.482574 
	C526.406921,334.482574 530.492249,334.482574 534.821472,334.482574 
	C534.821472,342.489838 534.821472,349.912964 534.821472,357.654877 
	C514.560120,357.654877 494.472168,357.654877 474.031616,357.654877 
	C474.031616,350.132294 474.031616,342.583374 474.031616,334.464050 
	C478.345490,334.464050 482.424072,334.464050 486.780273,334.464050 
	C486.780273,315.814545 486.780273,297.731476 486.780273,279.116394 
	C482.570007,279.116394 478.481018,279.116394 473.681152,279.116394 
	C473.681152,273.669922 473.681152,268.731476 473.681213,263.336060 
z"/>
<path fill="#95D579" opacity="1.000000" stroke="none" 
	d="
M922.816467,251.815094 
	C924.760437,251.881302 926.239075,251.947266 928.246094,252.036804 
	C928.246094,260.347931 928.246094,268.446838 928.246094,277.166534 
	C934.677368,277.166534 940.583069,277.166534 946.725586,277.166534 
	C946.725586,284.043152 946.725586,290.285736 946.725586,297.127563 
	C940.634521,297.127563 934.723633,297.127563 928.408569,297.127563 
	C928.408569,307.182861 928.200623,316.654175 928.500854,326.109344 
	C928.640015,330.490143 931.985474,332.966278 936.831726,332.888977 
	C939.284973,332.849854 941.728394,332.192139 944.730469,331.728485 
	C945.461731,338.254517 946.339294,344.789337 946.794189,351.353485 
	C946.875122,352.521423 945.472961,354.431732 944.294617,354.948914 
	C931.921021,360.379486 919.406372,360.943817 907.210510,354.602356 
	C899.515381,350.601074 895.525818,343.570587 894.998047,335.137421 
	C894.354126,324.846252 894.564026,314.501404 894.417480,304.179565 
	C894.387207,302.045319 894.413147,299.910309 894.413147,297.401245 
	C890.851929,297.205170 887.770569,297.035492 884.402588,296.850037 
	C884.402588,290.404114 884.402588,284.161194 884.402588,277.735931 
	C885.107849,277.550842 885.776550,277.143707 886.329407,277.264954 
	C894.829041,279.128662 899.632874,275.000793 902.640991,267.554626 
	C903.566711,265.262970 905.447693,263.345947 906.303406,261.039307 
	C909.132751,253.412125 914.261414,250.124207 922.816467,251.815094 
z"/>
<path fill="#94D279" opacity="1.000000" stroke="none" 
	d="
M144.055099,290.000000 
	C144.055557,273.011261 144.039459,256.522522 144.064331,240.033829 
	C144.074844,233.067368 145.551788,231.629059 152.641556,231.608963 
	C161.801880,231.582993 170.962631,231.560883 180.122635,231.620941 
	C185.909882,231.658875 187.708954,233.342056 187.713715,239.010284 
	C187.749146,281.148102 187.743378,323.286011 187.697006,365.423798 
	C187.690826,371.049835 185.782623,372.868286 180.133774,372.904694 
	C170.973755,372.963806 161.813049,372.936920 152.652695,372.915955 
	C145.702637,372.900055 144.075623,371.323425 144.068878,364.449402 
	C144.044662,339.799591 144.056732,315.149811 144.055099,290.000000 
M162.587112,242.823273 
	C160.308105,242.823273 158.029083,242.823273 155.592438,242.823273 
	C155.592438,282.752045 155.592438,322.067505 155.592438,361.351471 
	C162.723450,361.351471 169.434082,361.351471 176.276871,361.351471 
	C176.276871,321.721497 176.276871,282.515900 176.276871,242.823303 
	C171.822327,242.823303 167.689499,242.823303 162.587112,242.823273 
z"/>
<path fill="#96D579" opacity="1.000000" stroke="none" 
	d="
M635.145264,339.609558 
	C634.716064,333.741730 634.139771,328.279755 634.089783,322.812958 
	C633.954712,308.042816 634.043579,293.270630 634.043579,278.147736 
	C645.423645,278.147736 656.319397,278.147736 667.953064,278.147736 
	C667.953064,280.415436 667.952759,282.677032 667.953125,284.938660 
	C667.955139,296.920074 667.955750,308.901459 667.959656,320.882874 
	C667.963501,332.705750 670.170410,334.574280 681.864624,332.208740 
	C682.413208,338.683319 683.069885,345.106384 683.399719,351.546173 
	C683.459351,352.711609 682.478638,354.376038 681.469055,355.081329 
	C671.782166,361.849396 650.870361,360.593658 642.576843,352.201996 
	C639.336792,348.923584 637.638672,344.121399 635.145264,339.609558 
z"/>
<path fill="#92CE77" opacity="1.000000" stroke="none" 
	d="
M208.986496,281.015381 
	C208.990875,277.355469 208.994003,274.192047 208.999649,271.028595 
	C209.007767,266.484375 211.400406,264.303070 215.829193,264.289978 
	C225.818909,264.260498 235.808807,264.270172 245.798569,264.292114 
	C250.258179,264.301910 252.626160,266.539734 252.628418,271.044220 
	C252.644333,302.678650 252.674606,334.313171 252.608398,365.947479 
	C252.597900,370.951538 250.579071,372.851837 245.531052,372.904541 
	C236.208221,373.001862 226.883591,372.953430 217.559830,372.927917 
	C210.656296,372.909027 209.002121,371.284332 208.997223,364.427551 
	C208.977463,336.788971 208.987411,309.150421 208.986496,281.015381 
M241.422729,291.502197 
	C241.422729,286.398499 241.422729,281.294830 241.422729,275.939819 
	C234.041397,275.939819 227.346939,275.939819 220.542969,275.939819 
	C220.542969,304.650543 220.542969,332.974640 220.542969,361.742615 
	C225.896591,361.742615 230.889389,361.401123 235.812775,361.839264 
	C240.669571,362.271545 241.568314,360.258118 241.527267,355.888123 
	C241.328827,334.760712 241.429642,313.630432 241.422729,291.502197 
z"/>
<path fill="#94D378" opacity="1.000000" stroke="none" 
	d="
M96.014931,280.046997 
	C103.006317,280.048523 109.501007,280.063843 115.995598,280.046967 
	C120.514511,280.035217 122.783539,282.269867 122.784828,286.775848 
	C122.792412,313.253998 122.798424,339.732147 122.785347,366.210297 
	C122.783104,370.741364 120.357452,372.907196 115.916473,372.913544 
	C105.924744,372.927887 95.932899,372.939728 85.941246,372.907959 
	C81.491096,372.893799 79.123642,370.631134 79.121033,366.134308 
	C79.105682,339.656128 79.098091,313.177948 79.126717,286.699829 
	C79.131584,282.197357 81.547684,280.019379 86.025955,280.047424 
	C89.189911,280.067261 92.354103,280.048523 96.014931,280.046997 
M97.637436,361.774384 
	C102.208641,361.774384 106.779846,361.774384 111.389984,361.774384 
	C111.389984,337.852661 111.389984,314.822876 111.389984,291.626404 
	C104.228188,291.626404 97.398766,291.626404 90.547852,291.626404 
	C90.547852,315.108063 90.547852,338.140961 90.547852,361.774200 
	C92.797173,361.774200 94.741669,361.774200 97.637436,361.774384 
z"/>
<path fill="#94D477" opacity="1.000000" stroke="none" 
	d="
M637.775024,241.788544 
	C646.994934,234.583801 657.503418,234.787857 664.601868,242.048523 
	C670.887146,248.477478 670.719788,257.596130 664.203186,263.771912 
	C657.882446,269.762024 648.029236,270.696442 640.721924,265.998657 
	C631.972534,260.373749 630.640381,250.421417 637.775024,241.788544 
z"/>
<path fill="#242623" opacity="1.000000" stroke="none" 
	d="
M393.863342,309.479858 
	C395.784180,315.419647 397.560028,321.082153 400.006592,326.438354 
	C400.578796,327.691010 403.375183,328.243561 405.235901,328.512970 
	C407.632965,328.859985 410.118256,328.597473 412.839600,328.597473 
	C412.839600,333.290863 412.839600,337.385925 412.839600,342.268738 
	C405.193146,341.525238 399.827118,342.831757 396.258514,351.724487 
	C392.711670,360.563110 394.745819,365.422394 401.778320,370.090790 
	C398.093140,373.650360 395.011444,376.626984 391.908417,379.624207 
	C387.218689,377.728241 385.625366,369.761963 378.360809,372.916748 
	C364.940582,378.744751 364.915955,378.688019 363.481201,391.837708 
	C361.483704,391.837708 359.391083,391.837708 357.298492,391.837708 
	C355.156769,391.837708 353.015076,391.837708 350.075989,391.837708 
	C350.681793,384.030396 349.904846,378.380188 340.815125,374.826813 
	C332.022461,371.389648 327.133972,373.115601 322.670715,380.070404 
	C319.180786,376.489197 316.196838,373.427216 312.786499,369.927704 
	C318.648071,365.351685 321.489777,360.643433 317.678986,351.756439 
	C314.033752,343.255524 309.321136,341.212036 301.150574,342.529449 
	C301.150574,337.673737 301.150574,333.453278 301.150574,328.455231 
	C309.469574,329.943542 314.093292,327.401520 317.773468,318.914307 
	C321.607758,310.071716 318.552399,305.603180 312.211578,300.706604 
	C315.776611,297.351379 318.892609,294.418793 322.495667,291.027802 
	C327.125305,297.020325 331.757416,300.151428 340.662689,296.187073 
	C349.019653,292.466766 351.383789,287.927795 349.748383,279.540192 
	C354.571075,279.540192 358.806244,279.540192 363.745605,279.540192 
	C363.450073,286.707306 363.841919,292.531708 373.039032,296.099243 
	C381.863861,299.522369 386.671509,297.636108 391.464355,290.780457 
	C394.801636,294.297272 397.745667,297.399719 400.917542,300.742249 
	C398.756561,303.336395 396.359772,306.213654 393.863342,309.479858 
M369.779053,300.544800 
	C368.673462,300.183472 367.583069,299.764221 366.459961,299.469635 
	C351.891144,295.648254 336.439789,301.032806 327.370300,313.073547 
	C318.167664,325.291046 317.327972,341.832123 325.250916,354.822784 
	C333.145233,367.766449 347.793304,374.554840 362.767487,372.209229 
	C378.923920,369.678406 391.746796,356.710907 393.870483,340.755432 
	C396.171143,323.470398 387.122681,308.012970 369.779053,300.544800 
z"/>
<path fill="#242623" opacity="1.000000" stroke="none" 
	d="
M374.979919,273.559570 
	C374.219330,269.309021 371.642273,268.022064 368.063812,268.050842 
	C364.747162,268.077484 361.430115,268.056519 357.699860,268.056519 
	C357.699860,238.354538 357.699860,208.986465 357.699860,179.164246 
	C364.546997,179.164246 371.381561,179.164246 378.511780,179.164246 
	C378.511780,214.465408 378.511780,249.536118 378.511780,284.623047 
	C375.067810,284.133179 375.067810,284.133179 374.979919,273.559570 
z"/>
<path fill="#232522" opacity="1.000000" stroke="none" 
	d="
M303.009308,306.937103 
	C304.322083,308.254883 305.641510,309.166138 306.359833,310.421356 
	C306.983551,311.511261 307.467987,313.221405 307.033600,314.238953 
	C306.494385,315.502167 305.079498,316.937592 303.804169,317.219788 
	C301.579437,317.712006 299.170044,317.318909 296.842010,317.405029 
	C291.669250,317.596313 289.887482,319.283234 289.825592,324.345642 
	C289.734009,331.836426 289.846466,339.329468 289.787140,346.820923 
	C289.750580,351.436371 292.110413,353.509186 296.540436,353.567688 
	C298.704498,353.596252 300.882599,353.746155 303.030243,353.561157 
	C306.586578,353.254822 307.451752,356.012787 307.525970,358.276093 
	C307.562500,359.389648 305.017761,361.495514 303.539703,361.591553 
	C297.612610,361.976501 291.645844,361.750641 285.376221,361.750641 
	C285.376221,321.347168 285.376221,281.485321 285.376221,241.232147 
	C292.170074,241.232147 298.879578,241.232147 306.331940,241.232147 
	C306.331940,243.230972 306.332001,245.158615 306.331940,247.086258 
	C306.331421,259.905762 306.215942,272.726959 306.401672,285.543762 
	C306.456146,289.300537 305.527374,292.110413 302.702972,294.743134 
	C297.543854,299.552185 297.716736,301.413452 303.009308,306.937103 
z"/>
<path fill="#222322" opacity="1.000000" stroke="none" 
	d="
M1093.306885,321.263123 
	C1092.612549,311.990448 1095.216797,306.386902 1101.765015,303.435730 
	C1108.029907,300.612274 1114.104736,301.198853 1119.480103,305.680328 
	C1124.756836,310.079407 1126.509399,317.407349 1124.033081,323.790375 
	C1121.601685,330.057587 1115.763672,334.006866 1108.936768,334.002899 
	C1101.525269,333.998596 1096.293091,329.847687 1093.306885,321.263123 
z"/>
<path fill="#222322" opacity="1.000000" stroke="none" 
	d="
M1009.259766,302.575317 
	C1016.124023,308.901642 1018.144958,318.028870 1014.704224,326.038330 
	C1012.172546,331.931610 1007.263977,335.238403 1001.085938,335.212555 
	C994.894104,335.186646 990.049744,331.847260 987.577393,325.900299 
	C983.007690,314.908844 988.190369,302.326935 998.440674,300.684418 
	C1001.772766,300.150452 1005.444397,301.735229 1009.259766,302.575317 
z"/>
<path fill="#242623" opacity="1.000000" stroke="none" 
	d="
M163.071899,242.823288 
	C167.689499,242.823303 171.822327,242.823303 176.276871,242.823303 
	C176.276871,282.515900 176.276871,321.721497 176.276871,361.351471 
	C169.434082,361.351471 162.723450,361.351471 155.592438,361.351471 
	C155.592438,322.067505 155.592438,282.752045 155.592438,242.823273 
	C158.029083,242.823273 160.308105,242.823273 163.071899,242.823288 
z"/>
<path fill="#222322" opacity="1.000000" stroke="none" 
	d="
M241.423553,292.001709 
	C241.429642,313.630432 241.328827,334.760712 241.527267,355.888123 
	C241.568314,360.258118 240.669571,362.271545 235.812775,361.839264 
	C230.889389,361.401123 225.896591,361.742615 220.542969,361.742615 
	C220.542969,332.974640 220.542969,304.650543 220.542969,275.939819 
	C227.346939,275.939819 234.041397,275.939819 241.422729,275.939819 
	C241.422729,281.294830 241.422729,286.398499 241.423553,292.001709 
z"/>
<path fill="#252723" opacity="1.000000" stroke="none" 
	d="
M97.161797,361.774292 
	C94.741669,361.774200 92.797173,361.774200 90.547852,361.774200 
	C90.547852,338.140961 90.547852,315.108063 90.547852,291.626404 
	C97.398766,291.626404 104.228188,291.626404 111.389984,291.626404 
	C111.389984,314.822876 111.389984,337.852661 111.389984,361.774384 
	C106.779846,361.774384 102.208641,361.774384 97.161797,361.774292 
z"/>
<path fill="#94D277" opacity="1.000000" stroke="none" 
	d="
M370.141907,300.692383 
	C387.122681,308.012970 396.171143,323.470398 393.870483,340.755432 
	C391.746796,356.710907 378.923920,369.678406 362.767487,372.209229 
	C347.793304,374.554840 333.145233,367.766449 325.250916,354.822784 
	C317.327972,341.832123 318.167664,325.291046 327.370300,313.073547 
	C336.439789,301.032806 351.891144,295.648254 366.459961,299.469635 
	C367.583069,299.764221 368.673462,300.183472 370.141907,300.692383 
M383.008820,337.234070 
	C383.016571,336.401093 383.070892,335.565582 383.024994,334.735565 
	C382.427460,323.924042 377.253876,316.022522 367.409180,311.637421 
	C357.699524,307.312531 348.353699,308.765533 340.299957,315.598541 
	C332.090790,322.563354 329.270721,331.648895 331.915924,342.166168 
	C334.855682,353.854553 345.889740,362.014465 357.853088,361.562714 
	C370.880280,361.070740 380.445953,352.130859 383.008820,337.234070 
z"/>
<path fill="#212221" opacity="1.000000" stroke="none" 
	d="
M382.982635,337.667847 
	C380.445953,352.130859 370.880280,361.070740 357.853088,361.562714 
	C345.889740,362.014465 334.855682,353.854553 331.915924,342.166168 
	C329.270721,331.648895 332.090790,322.563354 340.299957,315.598541 
	C348.353699,308.765533 357.699524,307.312531 367.409180,311.637421 
	C377.253876,316.022522 382.427460,323.924042 383.024994,334.735565 
	C383.070892,335.565582 383.016571,336.401093 382.982635,337.667847 
z"/>
</svg>